#!OML:ASF E:\acrobat2\Project_11_07_03\Capture day 1\Session 1\Acrobat.ASF
:FULLY-SPECIFIED
:DEGREES
2871
root 10.7566 6.03745 11.6584 -88.4648 4.27477 178.657
lowerback -4.74197 -3.37332 4.91265
upperback 0.558044 -4.82263 0.636745
thorax 2.88316 -2.33489 -2.41764
lowerneck 3.75061 -14.7328 -10.8527
upperneck -28.4664 -15.6002 29.6521
head -5.25045 -8.35355 12.2152
rclavicle -3.97569e-014 3.54085e-015
rhumerus 31.8888 -34.0768 -32.2947
rradius 120.051
rwrist -23.1749
rhand -19.5223 -42.6467
rfingers 7.12502
rthumb 6.801 -72.5175
lclavicle -3.97569e-014 3.54085e-015
lhumerus 17.1493 48.6819 2.16688
lradius 108.352
lwrist 34.1889
lhand -5.16498 -25.4757
lfingers 7.12502
lthumb 20.6349 3.44741
rfemur 1.52782 15.6135 -9.15795
rtibia 2.0276e-014
rfoot 31.3158 -24.091
rtoes 29.5333
lfemur -11.6293 -21.7038 2.58522
ltibia 18.6867
lfoot 37.4552 11.3016
ltoes 18.2244
2872
root 10.7562 6.03752 11.6589 -88.4664 4.27144 178.656
lowerback -4.74048 -3.37028 4.92019
upperback 0.564174 -4.81923 0.637494
thorax 2.8884 -2.33286 -2.42099
lowerneck 3.69044 -14.7499 -10.8497
upperneck -28.4153 -15.6316 29.6419
head -5.21886 -8.36515 12.1953
rclavicle -1.11319e-014 3.31722e-015
rhumerus 31.9032 -34.0761 -32.2715
rradius 120.031
rwrist -23.1564
rhand -19.5403 -42.6446
rfingers 7.12502
rthumb 6.78359 -72.5159
lclavicle -1.11319e-014 3.31722e-015
lhumerus 17.169 48.6865 2.19302
lradius 108.353
lwrist 34.198
lhand -5.16255 -25.4883
lfingers 7.12502
lthumb 20.6372 3.43462
rfemur 1.52852 15.6128 -9.15603
rtibia 1.74931e-014
rfoot 31.2851 -24.0873
rtoes 29.6467
lfemur -11.6276 -21.7062 2.58942
ltibia 18.6793
lfoot 37.465 11.3371
ltoes 18.4408
2873
root 10.7558 6.03749 11.6595 -88.466 4.26916 178.649
lowerback -4.74223 -3.36719 4.92739
upperback 0.567193 -4.81579 0.638113
thorax 2.89226 -2.33089 -2.42438
lowerneck 3.66344 -14.7661 -10.8432
upperneck -28.3975 -15.6574 29.6371
head -5.20439 -8.3764 12.1847
rclavicle 3.49861e-014 -2.26863e-014
rhumerus 31.9117 -34.0733 -32.2409
rradius 120.01
rwrist -23.1368
rhand -19.5647 -42.6307
rfingers 7.12502
rthumb 6.76002 -72.5028
lclavicle 3.49861e-014 -2.26863e-014
lhumerus 17.1934 48.6851 2.22816
lradius 108.355
lwrist 34.2023
lhand -5.21991 -25.4487
lfingers 7.12502
lthumb 20.5821 3.48011
rfemur 1.53261 15.6069 -9.15791
rtibia -3.97569e-015
rfoot 31.2117 -24.1505
rtoes 29.9175
lfemur -11.6337 -21.6987 2.59278
ltibia 18.6798
lfoot 37.473 11.342
ltoes 18.4839
2874
root 10.7557 6.03735 11.6599 -88.4647 4.26707 178.636
lowerback -4.7463 -3.36525 4.93455
upperback 0.56804 -4.81391 0.638477
thorax 2.89502 -2.32975 -2.42817
lowerneck 3.68042 -14.7757 -10.8353
upperneck -28.4273 -15.6661 29.647
head -5.21428 -8.3826 12.1911
rclavicle -3.18055e-015 -1.94064e-014
rhumerus 31.9182 -34.0728 -32.2117
rradius 119.988
rwrist -23.1186
rhand -19.5843 -42.6074
rfingers 7.12502
rthumb 6.74116 -72.4801
lclavicle -3.18055e-015 -1.94064e-014
lhumerus 17.2207 48.6812 2.26766
lradius 108.357
lwrist 34.2028
lhand -5.34226 -25.3498
lfingers 7.12502
lthumb 20.4645 3.5917
rfemur 1.54168 15.5945 -9.15997
rtibia -6.75868e-015
rfoot 31.1346 -24.2308
rtoes 30.2345
lfemur -11.6472 -21.6816 2.59586
ltibia 18.6877
lfoot 37.4841 11.3158
ltoes 18.3535
2875
root 10.7557 6.03722 11.6599 -88.463 4.26152 178.616
lowerback -4.7511 -3.36566 4.94348
upperback 0.568061 -4.81534 0.639481
thorax 2.89701 -2.33028 -2.43249
lowerneck 3.72928 -14.7767 -10.8258
upperneck -28.4941 -15.6549 29.6704
head -5.24392 -8.38164 12.2118
rclavicle -5.24792e-014 1.41883e-014
rhumerus 31.9258 -34.0751 -32.1942
rradius 119.967
rwrist -23.1017
rhand -19.5899 -42.5895
rfingers 7.12502
rthumb 6.73568 -72.4623
lclavicle -5.24792e-014 1.41883e-014
lhumerus 17.2426 48.676 2.29993
lradius 108.359
lwrist 34.2031
lhand -5.47323 -25.2365
lfingers 7.12502
lthumb 20.3387 3.71851
rfemur 1.55468 15.5758 -9.15552
rtibia 6.36111e-015
rfoot 31.0919 -24.2805
rtoes 30.4435
lfemur -11.6677 -21.6572 2.60331
ltibia 18.7016
lfoot 37.4997 11.2635
ltoes 18.094
2876
root 10.7559 6.03707 11.6596 -88.4584 4.25392 178.593
lowerback -4.75949 -3.36774 4.95268
upperback 0.568013 -4.81924 0.640731
thorax 2.90075 -2.33198 -2.43709
lowerneck 3.78701 -14.7704 -10.8126
upperneck -28.5774 -15.6283 29.6972
head -5.28352 -8.37366 12.2377
rclavicle 4.45278e-014 1.39149e-015
rhumerus 31.9342 -34.0842 -32.1889
rradius 119.952
rwrist -23.0917
rhand -19.5803 -42.5886
rfingers 7.12502
rthumb 6.74502 -72.4611
lclavicle 4.45278e-014 1.39149e-015
lhumerus 17.2622 48.6738 2.32096
lradius 108.359
lwrist 34.2062
lhand -5.58161 -25.117
lfingers 7.12502
lthumb 20.2345 3.84901
rfemur 1.56581 15.5528 -9.14754
rtibia -1.94809e-014
rfoot 31.0838 -24.2875
rtoes 30.5801
lfemur -11.6949 -21.6355 2.61539
ltibia 18.7188
lfoot 37.5146 11.2097
ltoes 17.8563
